<svg height="512pt" viewBox="0 0 512 512" width="512pt" xmlns="http://www.w3.org/2000/svg" xmlns:xlink="http://www.w3.org/1999/xlink"><linearGradient id="a" gradientUnits="userSpaceOnUse" x1="256" x2="256" y1="0" y2="512"><stop offset="0" stop-color="#2af598"/><stop offset="1" stop-color="#009efd"/></linearGradient><path d="m437.019531 74.980469c-48.351562-48.351563-112.640625-74.980469-181.019531-74.980469s-132.667969 26.628906-181.019531 74.980469c-48.351563 48.351562-74.980469 112.640625-74.980469 181.019531s26.628906 132.667969 74.980469 181.019531c48.351562 48.351563 112.640625 74.980469 181.019531 74.980469s132.667969-26.628906 181.019531-74.980469c48.351563-48.351562 74.980469-112.640625 74.980469-181.019531s-26.628906-132.667969-74.980469-181.019531zm-181.019531 397.019531c-119.101562 0-216-96.898438-216-216s96.898438-216 216-216 216 96.898438 216 216-96.898438 216-216 216zm-111.84375-198.5c.1875 1.480469 4.742188 36.738281 19.171875 72.488281 26.699219 66.128907 65.132813 80.011719 92.671875 80.011719s65.972656-13.882812 92.671875-80.011719c14.429687-35.75 18.984375-71.007812 19.171875-72.488281l2.832031-22.5h-229.351562zm179.753906 17.5c-2.648437 11.546875-6.699218 26.195312-12.585937 40.644531-14.699219 36.066407-33.3125 54.355469-55.324219 54.355469s-40.625-18.289062-55.324219-54.355469c-5.886719-14.449219-9.9375-29.097656-12.585937-40.644531zm-187.03125-85.699219-25.757812-30.601562c19.6875-16.574219 40.203125-24.867188 61.058594-24.699219 20.359374.183594 40.445312 8.492188 59.699218 24.699219l-25.757812 30.601562c-24.265625-20.425781-44.972656-20.425781-69.242188 0zm202.898438-54.300781c20.289062.109375 40.621094 7.902344 60.425781 23.152344l-24.40625 31.691406c-25.4375-19.589844-47.386719-19.691406-71.167969-.335938l-25.257812-31.019531c19.152344-15.589843 39.320312-23.492187 59.960937-23.492187.148438.003906.296875.003906.445313.003906zm0 0" fill="url(#a)"/></svg>